fd_6_states
version=1
nRows=35
nColumns=17
inDegrees=yes

# SIMM Motion File Header:
name fd_6_states
datacolumns 17
datarows 35
otherdata 1
range 0.030000 0.049670
endheader
time	/jointset/r_shoulder/r_shoulder_elev/value	/jointset/r_shoulder/r_shoulder_elev/speed	/jointset/r_elbow/r_elbow_flex/value	/jointset/r_elbow/r_elbow_flex/speed	/forceset/TRIlong/activation	/forceset/TRIlong/fiber_length	/forceset/TRIlat/activation	/forceset/TRIlat/fiber_length	/forceset/TRImed/activation	/forceset/TRImed/fiber_length	/forceset/BIClong/activation	/forceset/BIClong/fiber_length	/forceset/BICshort/activation	/forceset/BICshort/fiber_length	/forceset/BRA/activation	/forceset/BRA/fiber_length
      0.030000	      0.000000	      0.000000	     81.636917	    383.702444	      0.020000	      0.166831	      0.020000	      0.101252	      0.020000	      0.096224	      0.462513	      0.104750	      0.249886	      0.103987	      0.138413	      0.071756
      0.030040	     -0.000000	     -0.000432	     81.652169	    383.685055	      0.020037	      0.166837	      0.020081	      0.101257	      0.020084	      0.096229	      0.463277	      0.104738	      0.249721	      0.103975	      0.138345	      0.071750
      0.030080	     -0.000000	     -0.000837	     81.667420	    383.667561	      0.020082	      0.166842	      0.020178	      0.101262	      0.020185	      0.096234	      0.464208	      0.104727	      0.249527	      0.103962	      0.138263	      0.071745
      0.030278	     -0.000000	     -0.002409	     81.743666	    383.577663	      0.020300	      0.166866	      0.020651	      0.101283	      0.020677	      0.096255	      0.468801	      0.104668	      0.248558	      0.103901	      0.137856	      0.071716
      0.031229	     -0.000002	      0.001836	     82.107963	    383.070292	      0.021233	      0.167020	      0.022676	      0.101371	      0.022782	      0.096344	      0.489426	      0.104376	      0.244009	      0.103611	      0.135930	      0.071582
      0.032179	      0.000014	      0.032071	     82.471733	    382.473438	      0.022013	      0.167082	      0.024362	      0.101461	      0.024534	      0.096435	      0.508071	      0.104068	      0.239586	      0.103323	      0.134045	      0.071448
      0.032725	      0.000036	      0.050632	     82.680309	    382.080558	      0.022400	      0.167189	      0.025200	      0.101515	      0.025405	      0.096490	      0.517986	      0.103886	      0.237102	      0.103160	      0.132979	      0.071371
      0.033270	      0.000071	      0.076597	     82.888670	    381.682642	      0.022750	      0.167223	      0.025955	      0.101572	      0.026190	      0.096548	      0.527379	      0.103700	      0.234658	      0.102997	      0.131927	      0.071295
      0.033927	      0.000131	      0.105567	     83.139231	    381.176379	      0.023126	      0.167295	      0.026767	      0.101642	      0.027034	      0.096618	      0.538049	      0.103472	      0.231766	      0.102801	      0.130676	      0.071203
      0.034584	      0.000209	      0.133282	     83.389457	    380.657103	      0.023458	      0.167401	      0.027485	      0.101714	      0.027780	      0.096691	      0.548075	      0.103241	      0.228929	      0.102607	      0.129442	      0.071111
      0.035241	      0.000307	      0.163167	     83.639343	    380.146083	      0.023752	      0.167455	      0.028119	      0.101788	      0.028439	      0.096766	      0.557512	      0.103007	      0.226144	      0.102413	      0.128226	      0.071019
      0.035898	      0.000423	      0.187067	     83.888892	    379.631646	      0.024011	      0.167548	      0.028680	      0.101864	      0.029023	      0.096841	      0.566403	      0.102771	      0.223411	      0.102220	      0.127027	      0.070927
      0.036555	      0.000553	      0.209349	     84.138108	    379.134385	      0.024240	      0.167615	      0.029177	      0.101940	      0.029538	      0.096918	      0.574791	      0.102533	      0.220729	      0.102027	      0.125844	      0.070835
      0.037212	      0.000696	      0.224601	     84.387000	    378.646797	      0.024443	      0.167721	      0.029616	      0.102017	      0.029995	      0.096996	      0.582713	      0.102294	      0.218095	      0.101835	      0.124677	      0.070743
      0.037868	      0.000848	      0.238062	     84.635583	    378.188968	      0.024622	      0.167776	      0.030005	      0.102096	      0.030400	      0.097074	      0.590201	      0.102054	      0.215510	      0.101643	      0.123527	      0.070651
      0.038525	      0.001007	      0.242121	     84.883868	    377.745806	      0.024781	      0.167873	      0.030350	      0.102175	      0.030758	      0.097153	      0.597287	      0.101814	      0.212971	      0.101451	      0.122392	      0.070559
      0.039182	      0.001166	      0.242326	     85.131873	    377.335894	      0.024921	      0.167937	      0.030655	      0.102254	      0.031075	      0.097233	      0.603997	      0.101574	      0.210477	      0.101260	      0.121273	      0.070467
      0.039839	      0.001323	      0.232980	     85.379617	    376.947490	      0.025045	      0.168045	      0.030925	      0.102335	      0.031356	      0.097313	      0.610356	      0.101334	      0.208028	      0.101069	      0.120169	      0.070375
      0.040004	      0.001361	      0.231229	     85.441573	    376.859336	      0.025075	      0.168054	      0.030998	      0.102355	      0.031432	      0.097334	      0.611880	      0.101274	      0.207435	      0.101021	      0.119895	      0.070351
      0.040094	      0.001382	      0.229776	     85.475484	    376.811011	      0.025107	      0.168061	      0.031328	      0.102365	      0.031762	      0.097344	      0.612289	      0.101241	      0.207982	      0.100995	      0.119745	      0.070339
      0.040184	      0.001402	      0.228099	     85.509392	    376.762557	      0.025143	      0.168069	      0.031704	      0.102375	      0.032138	      0.097354	      0.612619	      0.101208	      0.208689	      0.100968	      0.119596	      0.070326
      0.040633	      0.001503	      0.219256	     85.678861	    376.515597	      0.025310	      0.168118	      0.033488	      0.102415	      0.033923	      0.097394	      0.614239	      0.101044	      0.212092	      0.100835	      0.118853	      0.070263
      0.041419	      0.001671	      0.209804	     85.974554	    376.057109	      0.025570	      0.168214	      0.036258	      0.102478	      0.036694	      0.097460	      0.616943	      0.100761	      0.217560	      0.100596	      0.117573	      0.070152
      0.042677	      0.001935	      0.215243	     86.446928	    375.254054	      0.025915	      0.168361	      0.039918	      0.102586	      0.040357	      0.097573	      0.620957	      0.100314	      0.225207	      0.100202	      0.115567	      0.069975
      0.043206	      0.002051	      0.221494	     86.645613	    374.892952	      0.026038	      0.168453	      0.041221	      0.102636	      0.041661	      0.097624	      0.622540	      0.100128	      0.228073	      0.100033	      0.114737	      0.069900
      0.043736	      0.002171	      0.233019	     86.844108	    374.533651	      0.026149	      0.168498	      0.042403	      0.102688	      0.042844	      0.097678	      0.624063	      0.099943	      0.230750	      0.099862	      0.113916	      0.069826
      0.044533	      0.002363	      0.248786	     87.142258	    373.977843	      0.026297	      0.168591	      0.043978	      0.102769	      0.044421	      0.097761	      0.626247	      0.099666	      0.234453	      0.099603	      0.112698	      0.069713
      0.045168	      0.002525	      0.260292	     87.379826	    373.529270	      0.026401	      0.168696	      0.045082	      0.102837	      0.045525	      0.097829	      0.627901	      0.099446	      0.237154	      0.099395	      0.111740	      0.069623
      0.045804	      0.002695	      0.275075	     87.617112	    373.092262	      0.026492	      0.168749	      0.046065	      0.102906	      0.046510	      0.097899	      0.629482	      0.099228	      0.239650	      0.099186	      0.110794	      0.069533
      0.046440	      0.002874	      0.284885	     87.854119	    372.650679	      0.026574	      0.168833	      0.046942	      0.102976	      0.047389	      0.097970	      0.630991	      0.099012	      0.241958	      0.098976	      0.109860	      0.069443
      0.047086	      0.003061	      0.293978	     88.094726	    372.210943	      0.026648	      0.168906	      0.047738	      0.103049	      0.048185	      0.098044	      0.632457	      0.098792	      0.244127	      0.098763	      0.108922	      0.069352
      0.047732	      0.003252	      0.298849	     88.335051	    371.774972	      0.026713	      0.169004	      0.048447	      0.103123	      0.048896	      0.098119	      0.633857	      0.098574	      0.246134	      0.098549	      0.107997	      0.069260
      0.048378	      0.003447	      0.303908	     88.575100	    371.355482	      0.026771	      0.169064	      0.049079	      0.103198	      0.049529	      0.098194	      0.635194	      0.098357	      0.247990	      0.098336	      0.107083	      0.069168
      0.049024	      0.003644	      0.302541	     88.814878	    370.938163	      0.026822	      0.169160	      0.049643	      0.103273	      0.050094	      0.098270	      0.636471	      0.098141	      0.249709	      0.098122	      0.106181	      0.069077
      0.049670	      0.003839	      0.300591	     89.054392	    370.538129	      0.026868	      0.169223	      0.050146	      0.103350	      0.050598	      0.098347	      0.637691	      0.097926	      0.251301	      0.097908	      0.105290	      0.068985
